<svg id="Layer_1" data-name="Layer 1" xmlns="http://www.w3.org/2000/svg" viewBox="0 0 380.06 447.71"><path d="M434.35,381.25C420.84,367.9,407.47,354.4,394,341a8,8,0,0,1-2.65-6.2c.07-36.74,0-73.48.07-110.23a203.35,203.35,0,0,0-1.1-22L185.78,407.14H437.3c0-6.47-.14-12.58.05-18.69A8.93,8.93,0,0,0,434.35,381.25Z" transform="translate(-63.42 -28.58)"/><path d="M330.88,97.19A139.79,139.79,0,0,0,291,79.31c-2.34-.65-3-1.6-3-3.83.09-4.87.13-9.75-.06-14.62-.66-16-12.48-29.15-28.66-31.87a34.37,34.37,0,0,0-37.3,21.37c-3,7.63-2.17,15.51-2.17,23.33,0,3.51-.83,5.14-4.54,6.14-34.53,9.31-60.63,29.73-78.34,60.73-13.81,24.11-20.19,50.44-20.42,78.11-.26,31-.2,62-.12,93.06Z" transform="translate(-63.42 -28.58)"/><path d="M231.72,470.14c16.93,9.24,33.76,8,49.29-3.38,11.92-8.72,18.15-20.72,18.11-36H207.77C209.05,448.39,216.53,461.87,231.72,470.14Z" transform="translate(-63.42 -28.58)"/><rect x="12.32" y="229.39" width="482.26" height="55.23" transform="translate(-170.91 225.91) rotate(-45)"/></svg>