<svg xmlns="http://www.w3.org/2000/svg" fill="#c20303" height="25px" viewBox="0 0 483.52 187.5"><defs><style>.cls-1{fill:#fff;}</style></defs><g id="Layer_1" data-name="Layer 1"><path d="M491.81,326.58H8.28V139.08H491.81Z" transform="translate(-8.28 -139.08)"/></g><g id="Layer_2" data-name="Layer 2"><path class="cls-1" d="M285.21,205.17a42.86,42.86,0,0,1,.92-7.65c1.05-5.31,4.37-8.45,9.91-9.06a63.89,63.89,0,0,1,7.31-.45q64.23,0,128.47,0c14.59,0,20.91,4.37,25.3,18.14,5.36,16.81,5,34.11,4,51.41-.23,3.87-2.67,5.77-6.62,5.79s-7.69.17-11.53,0c-2.8-.14-4.3.72-5.58,3.35-3.49,7.1-9.51,10.76-17.63,10.63-7.87-.11-13.77-3.67-17.09-10.65-1.27-2.67-2.85-3.28-5.6-3.28-14.51.13-29,.18-43.52,0-3.22,0-4.82.93-6.36,3.8-6.51,12.21-24.06,14.35-31.73,3-4.31-6.36-8.91-7.28-15.33-6.78a64.19,64.19,0,0,1-7.34,0c-5.65-.16-7.55-2-7.6-7.48-.09-8.73,0-17.47,0-26.21C285.17,221.59,285.1,213.37,285.21,205.17Zm125.22,13.58c16.7,2.52,25.81,17.84,41.39,24.89.5-14.32.73-27-4.55-39.15-2.55-5.89-6.81-9.1-13.78-8.81-7.47.33-15,.08-23.06.08ZM298.38,196c-1.63.07-4.27,2.36-4.51,3.91a100.37,100.37,0,0,0-.8,15.8c0,.9,1.92,2.52,3,2.55,9.74.2,19.49.11,29.6.11V195.85C316.43,195.85,307.39,195.65,298.38,196Zm103.31.1H372.48V218h29.21Zm-63.6-.37c-1,0-2,.13-3.48.22V218.1h28.95V195.75H338.09Zm2.85,62.54a10.92,10.92,0,0,0-11.11-10.59,11.2,11.2,0,0,0-10.7,10.62c-.11,5.77,5,10.69,11,10.67a10.48,10.48,0,0,0,10.81-10.71Zm90-.16a10.94,10.94,0,0,0-21.87.35,10.94,10.94,0,0,0,21.87-.36Z" transform="translate(-8.28 -139.08)"/></g></svg>