<svg id="Layer_1" data-name="Layer 1" xmlns="http://www.w3.org/2000/svg" viewBox="0 0 484.99 246.28"><path d="M7.68,174A117.33,117.33,0,0,1,10.21,153c2.89-14.6,12-23.21,27.23-24.9a184.3,184.3,0,0,1,20.06-1.23q176.43-.1,352.87,0c40.09,0,57.45,12,69.5,49.84,14.72,46.15,13.74,93.67,11,141.2-.62,10.64-7.32,15.84-18.16,15.89-10.56,0-21.14.49-31.67,0-7.69-.37-11.81,2-15.33,9.2-9.6,19.52-26.13,29.56-48.43,29.22-21.61-.32-37.83-10.1-46.95-29.27-3.49-7.32-7.83-9-15.38-9-39.85.35-79.7.48-119.54.06-8.83-.09-13.24,2.54-17.45,10.44-17.88,33.53-66.09,39.41-87.16,8.36-11.85-17.46-24.47-20-42.1-18.61a183.19,183.19,0,0,1-20.16,0C13,333.76,7.79,328.8,7.64,313.66c-.24-24-.06-48-.07-72C7.56,219.11,7.37,196.53,7.68,174Zm343.93,37.31c45.89,6.91,70.9,49,113.7,68.36,1.38-39.32,2-74.24-12.49-107.53-7-16.18-18.72-25-37.86-24.19-20.52.91-41.12.21-63.35.21ZM43.86,148.9c-4.47.19-11.74,6.49-12.38,10.75-2.17,14.28-2.33,28.91-2.2,43.39,0,2.46,5.26,6.93,8.16,7,26.75.54,53.51.32,81.3.32V148.4C93.42,148.4,68.6,147.85,43.86,148.9Zm283.75.27H247.39v60.17h80.22Zm-174.69-1c-2.81,0-5.61.35-9.55.6v60.75h79.51V148.12C198.79,148.12,175.86,148.1,152.92,148.14Zm7.84,171.77c-.25-16.18-14.33-29.61-30.52-29.1-15.64.48-29.09,13.84-29.38,29.18-.31,15.86,13.6,29.36,30.2,29.31C148.17,349.26,161,336.55,160.76,319.91Zm247.3-.45c-.57-15.39-14.32-28.58-29.87-28.67C362,290.7,347.87,304.6,348,320.47c.08,16.2,13.73,29.08,30.56,28.83S408.65,335.55,408.06,319.46Z" transform="translate(-7.5 -126.86)"/></svg>