<svg id="Layer_1" data-name="Layer 1" xmlns="http://www.w3.org/2000/svg" viewBox="0 0 483.56 389.1"><path d="M487.8,215.08c-29.41,0-58.81-.1-88.22.1-4.31,0-6.94-1.36-9.51-4.73-18.63-24.43-37.47-48.71-56.23-73-7.95-10.31-18.21-15.78-31.44-15.71-24.44.13-48.88,0-73.32,0h-7V92.89c-10.8,0-20.86-.23-30.9.11-4.62.15-7.07-1.17-8.86-5.69-5.19-13.1-11.07-25.93-16.42-39-1.38-3.36-3.19-4.59-6.79-4.43-6.43.29-12.88.08-20.26.08,3,7.63,5.61,14.54,8.53,21.3,1.52,3.5,1.5,6.26-1,9.39a131.65,131.65,0,0,0-9.88,14C134.39,92.11,131.77,93,128,93c-28.26-.14-56.52-.08-84.78-.08H35.63v28.84H11.76v30.6H92v62.35H11.76V350.23a375.21,375.21,0,0,0,57.64,4.46c25.55-.05,50.38-5.19,75.37-9.53C178,339.4,211.16,333,244.61,329.05c16.43-1.93,33.57-.05,50.14,2.05a459.07,459.07,0,0,1,96,23c3.76,1.34,4.74-1,6.26-3.09q31.45-43.29,62.89-86.61,16-22,31.94-44c1-1.36,1.85-2.79,3.49-5.27Zm-264.89-.48H116.78V152.35H222.91Zm25.94.08V151.94c11.74,0,23,.09,34.17,0,12.39-.13,22.85,4.33,30.65,13.83,9.79,11.92,19,24.3,28.47,36.5,3,3.86,5.88,7.79,9.38,12.43Z" transform="translate(-11.76 -43.89)"/><path d="M266.29,370.35c-25.87,3.12-51.59,7.88-77.19,12.89-40.74,8-81.55,14.26-123.25,11.11a354.94,354.94,0,0,1-54.09-8.65v37c26.4,6.11,53.06,10.47,80.43,10.25,28-.23,55.34-5.42,82.72-10.57s54.6-10.85,82.14-14.46c37.53-4.94,74.66-.4,111,9.64,6.78,1.88,10.22.59,13.72-5.16,4.93-8.1,10.73-15.66,16.5-23.95C354.64,374.73,311.34,364.92,266.29,370.35Z" transform="translate(-11.76 -43.89)"/></svg>