<svg xmlns="http://www.w3.org/2000/svg" viewBox="0 0 483.52 187.5"><defs><style>.cls-1{fill:#fff;}</style></defs><g id="Layer_1" data-name="Layer 1"><path d="M491.81,326.58H8.28V139.08H491.81Z" transform="translate(-8.28 -139.08)"/></g><g id="Layer_2" data-name="Layer 2"><path class="cls-1" d="M459.12,225.13c-10.37,0-20.75,0-31.13,0a3.73,3.73,0,0,1-3.35-1.67c-6.58-8.62-13.23-17.19-19.85-25.76a13.21,13.21,0,0,0-11.09-5.54c-8.63,0-17.25,0-25.88,0h-2.47V182c-3.81,0-7.36-.08-10.9,0a2.75,2.75,0,0,1-3.13-2c-1.83-4.63-3.9-9.15-5.79-13.77a2.14,2.14,0,0,0-2.4-1.56c-2.27.1-4.54,0-7.15,0,1.06,2.69,2,5.13,3,7.51a2.87,2.87,0,0,1-.35,3.32,47.3,47.3,0,0,0-3.49,4.94,3,3,0,0,1-3,1.53c-10-.05-19.94,0-29.91,0h-2.68V192.2h-8.43V203h28.32v22H291.13v47.83a131.94,131.94,0,0,0,20.34,1.57c9,0,17.78-1.83,26.6-3.36,11.73-2,23.43-4.29,35.23-5.69,5.8-.68,11.85,0,17.7.73a162.4,162.4,0,0,1,33.88,8.11c1.32.48,1.67-.35,2.21-1.09l22.19-30.56q5.64-7.77,11.27-15.53c.35-.48.65-1,1.23-1.86ZM365.65,225H328.19V203h37.46Zm9.15,0V202.85c4.14,0,8.12,0,12.06,0a13.22,13.22,0,0,1,10.82,4.88c3.45,4.21,6.7,8.58,10,12.88,1.06,1.37,2.08,2.75,3.31,4.39Z" transform="translate(-8.28 -139.08)"/><path class="cls-1" d="M381,278.85c-9.13,1.1-18.21,2.78-27.24,4.55-14.38,2.82-28.78,5-43.5,3.92a124.61,124.61,0,0,1-19.09-3.05v13.05a121,121,0,0,0,28.39,3.62c9.88-.08,19.53-1.91,29.19-3.73s19.27-3.83,29-5.1c13.25-1.74,26.35-.14,39.18,3.4,2.39.66,3.6.21,4.84-1.82,1.74-2.86,3.78-5.53,5.82-8.45C412.13,280.4,396.85,276.93,381,278.85Z" transform="translate(-8.28 -139.08)"/></g></svg>