<svg id="Layer_1" data-name="Layer 1" xmlns="http://www.w3.org/2000/svg" viewBox="0 0 448.86 409.93"><path d="M52.27,115.32c11.5.08,23,.14,34.48-.06,3.54-.06,5.19,1.2,6.86,4.34,21.19,43.87,82.48,43.48,101.88-1.61,1.71-3.6,3.51-4.84,7.43-4.83,43.26.14,86.52.09,129.79.09q65.37,0,130.74,0c9.75,0,16.93-6.6,17.86-15.84,1-9.92-4.8-17.86-14.62-19.83-87.87-1.29-175.91,0-263.83-.46-2.84,0-5.17.22-7-3.28-20.71-44.37-81.75-44.4-102.62-.09-1.28,2.49-2.64,3.46-5.44,3.43C76,77,64.21,77,52.4,77.08c-12,0-19.91,7.47-19.83,18.54C32.66,107.81,40,115.22,52.27,115.32ZM143,78.5c12.29.39,20.57,8.34,20.23,19.43-.3,10.13-9.09,18.47-19.09,18.13-10.6-.37-18.77-9.78-18.32-21.13C126.24,84.83,133.18,78.19,143,78.5Z" transform="translate(-32.57 -40.49)"/><path d="M463.42,228.42c-23.79-.1-47.57-.16-71.35.07-4.53,0-6.8-1.17-9.09-5.35-21-42.31-83.15-42.26-101.85,2-1.37,3-3.2,3.31-5.94,3.31q-56-.09-112.06,0c-37.19,0-74.38,0-111.58,0-25.61.16-25.1,36.7.48,36.13q111.1,0,222.2-.07c3.88,0,5.74,1.16,7.47,4.76,18.81,43,83.2,43,101.89-.11,1.74-3.65,3.74-4.67,7.54-4.64,23.47.15,46.93.09,70.4,0,11.79,1,21.37-8.42,19.71-20.64A17.64,17.64,0,0,0,463.42,228.42ZM314.08,246.27a18.56,18.56,0,0,1,37.11.25C350.61,271.34,314.35,271.11,314.08,246.27Z" transform="translate(-32.57 -40.49)"/><path d="M468.45,378.41c-88.26-1.9-176.86-.09-265.22-.59-4.08,0-6-1.23-7.95-4.88-10.84-20.4-27.84-32.09-51.13-32-23.61.12-41.06,11.33-51,33.15-1.28,2.8-2.81,3.7-5.76,3.66-12-.13-23.94-.09-35.91,0-25.42,0-25,36.14.13,36.14,11.65.06,23.31.18,35-.08,3.79-.09,5.4,1.19,7,4.6,10.23,21.08,27.32,32,50.74,32,23.59.06,40.88-10.71,51.17-32,1.63-3.38,3.29-4.59,7.08-4.58,43.26.15,86.52.09,129.78.09,43.89-.1,87.8.19,131.69-.07C484.74,413.24,487.72,383.57,468.45,378.41ZM144.54,414.3a18.64,18.64,0,0,1-18.71-18.37c.82-24.85,36.74-25.09,37.44.09A18.52,18.52,0,0,1,144.54,414.3Z" transform="translate(-32.57 -40.49)"/></svg>