<svg id="Layer_1" data-name="Layer 1" xmlns="http://www.w3.org/2000/svg" viewBox="0 0 466.83 451.72"><defs><style>.cls-1{fill:#fff;}</style></defs><path d="M483.87,135.12c-1.52,3.58-3.18,7.1-4.53,10.73q-42.87,115.86-85.68,231.74c-.37,1-.77,2-1.44,3.67-1.84-3.09-3.4-5.73-5-8.35-12.77-21-29.69-37.16-53.52-45-11.92-3.92-24.24-6.26-36.72-5.76-21.08.85-42.13,2.4-63.16,4-21.8,1.69-43.52,4.33-65.46,1.63s-41.32-10.62-57-26.67c-.52-.54-1.13-1-2.36-2.06C87.56,357.2,66.2,415,44.68,473.14L17,463,180.23,21.42c1.85,3.23,3.19,5.64,4.6,8,11.77,19.65,27,35.47,48.84,43.91,18,7,36.93,8.69,56,7.44,29.39-1.94,58.72-4.87,88.12-6.67,17.36-1.06,34.54.88,51.07,7.06,17.95,6.72,32,18.34,43.2,33.62,4.17,5.69,7.89,11.72,11.81,17.6ZM276,156.13c5.23-14.32,10.46-28.65,15.79-43.22a20.81,20.81,0,0,0-2.19-.32c-16.2-.49-32.41-.84-48.59-1.56-2.91-.13-3.27,1.42-3.94,3.22q-7.42,20-14.81,40.07c-17.25-3-32.15-11.11-45.89-22.36-5.79,15.56-11.37,30.43-16.76,45.37a4.1,4.1,0,0,0,1,3.73c7.45,4.9,14.79,10.1,22.71,14.12,6.5,3.29,13.75,5.09,21,7.67-5.86,15.86-11.68,31.61-17.51,47.36-1.16-.37-2.29-.82-3.47-1.09a96.32,96.32,0,0,1-38.54-18.77c-1.11-.88-2.36-1.6-3.89-2.63-5.24,14.16-10.32,27.77-15.24,41.45a3.87,3.87,0,0,0,1,3.37c12.85,10.57,27.27,17.94,44.18,21.1l15.8-43.57a254.2,254.2,0,0,0,53.81,1.72c-5.29,14.4-10.59,28.81-16.09,43.79,18.52-1.7,36.18-3.24,53.81-5.1,1.34-.14,3-2.27,3.58-3.82,5.18-13.42,10.15-26.92,15.18-40.4,8-.06,16.09-.38,24.12-.11,9.6.32,19.18,1.14,29.35,1.78-5.64,15.35-10.9,29.64-16.32,44.38,17.48,3.39,32.28,11.27,45.89,22.49,5.33-14.41,10.42-28,15.29-41.7.36-1-.61-3.11-1.6-3.91-11.32-9.19-23.85-16.07-38.18-19.4-1.58-.37-3.1-1-5.18-1.63L368,200.75c17.1,3.36,32.09,11.21,45.77,22.5,5.78-15.64,11.32-30.39,16.57-45.24.42-1.21-.69-3.68-1.85-4.62-11.3-9.25-23.93-16-38.26-19.24-1.41-.33-2.77-.9-4.53-1.48,5.34-14.61,10.57-28.89,15.9-43.44-17.4-2.92-34.22-2.85-51.06-1.9-1.25.07-2.95,1.87-3.48,3.24-3.6,9.17-6.94,18.45-10.35,27.69-1.5,4.07-3,8.15-4.65,12.74,18.19-.62,35.7-1.13,53.34,2.11-.87,2.43-1.57,4.41-2.28,6.38l-15,41.42c-17.9-3.11-35.91-3.28-54-1.93L332,151.24Z" transform="translate(-17.04 -21.42)"/><path class="cls-1" d="M186.8,250.22c5.83-15.76,11.65-31.51,17.51-47.37-7.25-2.58-14.5-4.38-21-7.67-7.92-4-15.26-9.22-22.71-14.12a4.1,4.1,0,0,1-1-3.73c5.39-14.94,11-29.81,16.76-45.37,13.74,11.25,28.64,19.32,45.89,22.36l-.09-.14c-5.8,15.94-11.6,31.89-17.85,49.09l53.56,1.67c-5.78,15.53-11.62,31.23-17.47,46.93l.1-.08a254.2,254.2,0,0,1-53.81-1.72Z" transform="translate(-17.04 -21.42)"/><path class="cls-1" d="M314.22,199c18.06-1.35,36.07-1.18,54,1.93l-.14-.16c-5.88,15.71-11.75,31.42-17.73,47.41,2.08.66,3.6,1.26,5.18,1.63,14.33,3.33,26.86,10.21,38.18,19.4,1,.8,2,2.9,1.6,3.91-4.87,13.69-10,27.29-15.29,41.7-13.61-11.22-28.41-19.1-45.89-22.49,5.42-14.74,10.68-29,16.32-44.38-10.17-.64-19.75-1.46-29.35-1.78-8-.27-16.08,0-24.12.11l.07.15,17.31-47.5Z" transform="translate(-17.04 -21.42)"/><path class="cls-1" d="M368.19,200.91l15-41.42c.71-2,1.41-4,2.28-6.38-17.64-3.24-35.15-2.73-53.34-2.11,1.68-4.59,3.15-8.67,4.65-12.74,3.41-9.24,6.75-18.52,10.35-27.69.53-1.37,2.23-3.17,3.48-3.24,16.84-1,33.66-1,51.06,1.9-5.33,14.55-10.56,28.83-15.9,43.44,1.76.58,3.12,1.15,4.53,1.48,14.33,3.28,27,10,38.26,19.24,1.16.94,2.27,3.41,1.85,4.62-5.25,14.85-10.79,29.6-16.57,45.24C400.13,212,385.14,204.11,368,200.75Z" transform="translate(-17.04 -21.42)"/><path class="cls-1" d="M276,156.13l56-4.89L314.22,199l.11-.07L258.1,204l17.95-47.94Z" transform="translate(-17.04 -21.42)"/><path class="cls-1" d="M297,246.26c-5,13.48-10,27-15.18,40.4-.6,1.55-2.24,3.68-3.58,3.82-17.63,1.86-35.29,3.4-53.81,5.1,5.5-15,10.8-29.39,16.09-43.79l-.1.08L297,246.41Z" transform="translate(-17.04 -21.42)"/><path class="cls-1" d="M222.22,154.32q7.41-20,14.81-40.07c.67-1.8,1-3.35,3.94-3.22,16.18.72,32.39,1.07,48.59,1.56a20.81,20.81,0,0,1,2.19.32c-5.33,14.57-10.56,28.9-15.79,43.22l.09-.08a63.8,63.8,0,0,1-8.13.6c-15.27-.74-30.53-1.63-45.79-2.47Z" transform="translate(-17.04 -21.42)"/><path class="cls-1" d="M186.66,250.07l-15.8,43.57c-16.91-3.16-31.33-10.53-44.18-21.1a3.87,3.87,0,0,1-1-3.37c4.92-13.68,10-27.29,15.24-41.45,1.53,1,2.78,1.75,3.89,2.63a96.32,96.32,0,0,0,38.54,18.77c1.18.27,2.31.72,3.47,1.1Z" transform="translate(-17.04 -21.42)"/><path d="M222.13,154.18c15.26.84,30.52,1.73,45.79,2.47a63.8,63.8,0,0,0,8.13-.6L258.1,204l56.23-5.08L297,246.41l-56.65,5.46c5.85-15.7,11.69-31.4,17.47-46.93l-53.56-1.67C210.53,186.07,216.33,170.12,222.13,154.18Z" transform="translate(-17.04 -21.42)"/></svg>