<svg xmlns="http://www.w3.org/2000/svg" viewBox="0 0 445.75 454.09" height="35px"><defs><style>.cls-1{fill:#fff;}</style></defs><g id="Layer_1" data-name="Layer 1"><path d="M486.33,165.16c4.15,35.35,8.23,70.7,12.53,106,1,7.91-1.66,13.76-8.24,18-14.74,9.46-30.39,16.9-47.45,21.14-7.22,1.8-14.41,4.26-21.74,4.9a161.13,161.13,0,0,1-37.87-.8c-14.6-2.17-29.26-4.47-44-5.22-23.5-1.2-44.37,6.41-62.71,21.36a237.21,237.21,0,0,0-29.56,28.79c-7.52,8.68-21.55,8.36-27.27-2.28s-10.93-21.43-16.31-32.2Q180.78,279,157.89,233.06l-35.76-71.58c-4.12-8.24-4-15.78,2.16-23.34,10.54-12.93,22.87-23.77,36.3-33.54a195,195,0,0,1,52.7-27.29,218.76,218.76,0,0,1,24.16-6.78c8.57-1.82,17.32-2.85,26-4,15.23-2,30.18-.1,44.85,4C324.27,75,340.11,79.92,356,84.44c14,4,27.58,1.91,40.74-3.55,18.22-7.56,34-18.87,48.29-32.31,9.17-8.61,23.62-5.53,27.78,5.25a19.15,19.15,0,0,1,.89,4.47Q480.05,111.73,486.33,165.16ZM198,121.09c8.7,16.33,17,31.95,25.43,47.69a181.2,181.2,0,0,1,71.61-18.63L275,99.62C247.72,100.44,222.38,108.06,198,121.09Zm24.71,49c-15.6,9.05-30,18.78-42.56,31.2,11.65,23.43,23.18,46.62,34.92,70.25a46.45,46.45,0,0,1,3.15-3.68c11.44-10.64,22.8-21.41,36.63-29,3.13-1.72,3-3.23,1.43-6.13-9.16-16.95-18.05-34-27.08-51.06C227.18,177.8,225,174.06,222.72,170.06Zm154.61,59.46c-1.9-5.17-3.49-9.38-5-13.63q-7.89-22.45-15.71-44.95c-1.36-3.93-3.13-6.82-7.79-8-13.41-3.29-26.66-7.27-40-10.68-3.77-1-7.81-.89-12.47-1.37l28.48,71.7ZM344,275.14c.09-.35.27-.65.2-.85-5.89-14.88-11.92-29.69-17.6-44.64-1.6-4.2-3.17-5.81-8.36-5.69-13.91.32-27.64.69-40.77,5.95-5.93,2.38-11.89,4.69-17.88,7.05l25.35,48.61C303.71,276.82,323.59,275.36,344,275.14Zm61.75-160c-11.57,1.84-22.86,4.89-34.21,5.11-11.16.22-22.37-2.43-33.33-3.79.34,1,.95,2.93,1.61,4.82,4.75,13.56,9.47,27.12,14.31,40.65a4.55,4.55,0,0,0,2.43,2.63c18.32,5.12,36.59,7.26,55-.13,3.08-1.24,3.57-2.46,3-5.09-1.22-5.66-2.55-11.31-3.67-17C409.06,133.14,407.37,123.88,405.74,115.18Zm31.89,161.47c-.29-2.42-.42-4.93-.9-7.36-2.62-13.29-5.47-26.53-7.92-39.85-.62-3.32-2-3.84-4.82-3.15-4.81,1.16-9.6,2.73-14.49,3.23-10.07,1-20.21,1.46-30.5,2.15l17.81,49.84C410.87,282.91,424.08,281.06,437.63,276.65Zm12.45-131.8L416.37,164.5c3.95,19.63,7.94,39.51,12,59.47a8.9,8.9,0,0,0,2.29-.3c7.82-3.58,15.54-7.42,23.48-10.74,3.23-1.36,3.73-3,3.33-6.26-2.43-19.31-4.63-38.65-6.9-58ZM83.5,194.73q14.28,28.4,28.54,56.83c14.89,29.86,29.67,59.77,44.58,89.62,10.94,21.9,22.08,43.71,33,65.62q19,38.18,37.85,76.48c3.39,6.88,7.09,13.08,15.88,14.27,11.43,1.54,22.24-9.31,18-20.95-3.23-8.82-7.58-17.25-11.77-25.69Q225.3,402,200.8,353.27,176.93,305.57,153,257.9q-23.67-47.34-47.31-94.69c-1.11-2.2-1.22-3.58.29-5.78,4.95-7.24,3.8-14.36.08-19.65-4.4-6.25-12.49-8.91-19.1-6.35-8.41,3.24-16.7,6.81-24.91,10.54a14.26,14.26,0,0,0-5.61,4.72c-4.33,6.34-4,13.29-.24,19.53,3.56,5.82,9.52,8.11,16.62,7.47C76.47,180.84,80,187.77,83.5,194.73Z" transform="translate(-53.3 -43.6)"/></g><g id="Layer_2" data-name="Layer 2"><path class="cls-1" d="M198,121.09c24.37-13,49.71-20.65,77-21.47l20,50.53a181.2,181.2,0,0,0-71.61,18.63C215.05,153,206.71,137.42,198,121.09Zm-17.85,80.17c11.65,23.43,23.18,46.62,34.92,70.25a46.45,46.45,0,0,1,3.15-3.68c11.44-10.64,22.8-21.41,36.63-29,3.13-1.72,3-3.23,1.43-6.13-9.16-16.95-18.05-34-27.08-51.06-2-3.84-4.24-7.58-6.49-11.58C207.12,179.11,192.68,188.84,180.16,201.26Zm192.19,14.63q-7.89-22.45-15.71-44.95c-1.36-3.93-3.13-6.82-7.79-8-13.41-3.29-26.66-7.27-40-10.68-3.77-1-7.81-.89-12.47-1.37l28.48,71.7,52.51,6.89C375.43,224.35,373.84,220.14,372.35,215.89Zm-28.16,58.4c-5.89-14.88-11.92-29.69-17.6-44.64-1.6-4.2-3.17-5.81-8.36-5.69-13.91.32-27.64.69-40.77,5.95-5.93,2.38-11.89,4.69-17.88,7.05l25.35,48.61c18.78-8.75,38.66-10.21,59.06-10.43C344.08,274.79,344.26,274.49,344.19,274.29Zm27.34-154c-11.16.22-22.37-2.43-33.33-3.79.34,1,.95,2.93,1.61,4.82,4.75,13.56,9.47,27.12,14.31,40.65a4.55,4.55,0,0,0,2.43,2.63c18.32,5.12,36.59,7.26,55-.13,3.08-1.24,3.57-2.46,3-5.09-1.22-5.66-2.55-11.31-3.67-17-1.81-9.24-3.5-18.5-5.13-27.2C394.17,117,382.88,120.07,371.53,120.29Zm65.2,149c-2.62-13.29-5.47-26.53-7.92-39.85-.62-3.32-2-3.84-4.82-3.15-4.81,1.16-9.6,2.73-14.49,3.23-10.07,1-20.21,1.46-30.5,2.15l17.81,49.84c14.06,1.4,27.27-.45,40.82-4.86C437.34,274.23,437.21,271.72,436.73,269.29ZM416.37,164.5c3.95,19.63,7.94,39.51,12,59.47a8.9,8.9,0,0,0,2.29-.3c7.82-3.58,15.54-7.42,23.48-10.74,3.23-1.36,3.73-3,3.33-6.26-2.43-19.31-4.63-38.65-6.9-58l-.45-3.84Z" transform="translate(-53.3 -43.6)"/></g></svg>