<svg id="Layer_1" data-name="Layer 1" xmlns="http://www.w3.org/2000/svg" viewBox="0 0 482.39 454.25"><path d="M311.45,477c0-34.4,0-67.4,0-100.4,0-14.79.13-29.59-.09-44.37-.16-11.41-2.83-13.93-14.14-13.95q-45.93-.09-91.85,0c-13.27,0-15.64,2.24-15.66,15.56q-.11,65,0,130v13.21H113.57c-9.29,0-18.58-.14-27.86,0-8.47.16-12.85-3.49-12.84-12.23,0-62.95-.1-125.91.25-188.86,0-4.24,2.5-9.47,5.54-12.54Q160.08,181.55,242,100.09c7.88-7.87,10.53-7.68,19.51,1.29,49.63,49.57,98.73,99.69,149.16,148.43,13.4,12.95,18.19,26,17.84,44.16-1.05,55.36-.37,110.76-.38,166.15,0,15.35-1.59,16.89-17.32,16.9C378.17,477,345.55,477,311.45,477ZM459.11,278.1c4,3.93,12.11,7.4,16.95,6.08,16.71-4.57,20-21.05,7.72-33.44-19.15-19.27-38.61-38.24-57.43-57.82l.48-98.61c-1-7.64-9.06-5.68-14.63-5.71-27.52-.13-55,.19-82.55-.3a21.51,21.51,0,0,1-13.3-5.39C298.2,65.57,280.66,47.6,262.82,30c-9.46-9.34-15.21-9.45-24.44-.23Q127.48,140.5,16.72,251.41c-10.88,10.89-10.52,16.06,1,27.38,9.17,9,15.12,8.8,25.11-1.18,69.7-69.74,138.26-137.74,207.58-208.42C319.9,139.89,388.89,208.45,459.11,278.1Z" transform="translate(-8.81 -22.87)"/></svg>