<svg xmlns="http://www.w3.org/2000/svg" viewBox="0 0 375.01 470.94" height="35px"><defs><style>.cls-1{fill:#fff;}</style></defs><g id="Layer_1" data-name="Layer 1"><path d="M237.15,14.49h25.76a32,32,0,0,0,4,.82,179.31,179.31,0,0,1,73.21,22.34C375.84,57.48,402.67,86,420,123.13c18.15,39,22.11,79.56,12.42,121.45-8.63,37.26-25.93,70.54-47.47,101.75C355,389.73,318.8,427.54,279,461.91c-9.36,8.08-19.12,15.7-28.69,23.52-1.85-1.28-3.25-2.19-4.6-3.19-44.68-33.13-84.73-71-118.55-115.31-24.64-32.27-44.58-67-55.91-106.24-8.22-28.45-11.14-57.4-6.53-86.81,5.95-37.94,21.92-71.15,48.12-99.3Q154.31,30,214.12,18.08C221.73,16.56,229.47,15.67,237.15,14.49ZM339.32,202a89.21,89.21,0,0,0-89-89.35c-49.3-.33-89.52,39.68-89.62,89.16a89.3,89.3,0,1,0,178.6.19Z" transform="translate(-62.49 -14.49)"/></g><g id="Layer_2" data-name="Layer 2"><path class="cls-1" d="M339.3,202a89.3,89.3,0,1,1-178.6-.19c.1-49.48,40.32-89.49,89.62-89.16A89.21,89.21,0,0,1,339.3,202Z" transform="translate(-62.49 -14.49)"/></g></svg>