<svg id="Layer_1" data-name="Layer 1" xmlns="http://www.w3.org/2000/svg" viewBox="0 0 443.39 443.46"><path d="M248.88,36C128.32,36.73,27.62,137.6,28.46,256.75c.87,123.94,100.57,224.12,223,222.64,122.69-1.49,219.6-98.91,220.38-219.5C472.64,135.2,371.59,35.17,248.88,36Zm1.58,428.26c-116.7,0-206.61-91.83-206.77-211.28C43.55,143.28,137.54,51.37,249.91,51.3c115.72-.08,206.76,91.88,207,209.05C457.07,371.89,363.63,464.18,250.46,464.21Z" transform="translate(-28.45 -35.95)"/><path d="M156.41,171.43h72.28V381H272V170.43h71.85V134.38H156.41Z" transform="translate(-28.45 -35.95)"/></svg>