<svg xmlns="http://www.w3.org/2000/svg" viewBox="0 0 483.52 187.5"><defs><style>.cls-1{fill:#fff;}</style></defs><g id="Layer_1" data-name="Layer 1"><path d="M491.81,326.58H8.28V139.08H491.81Z" transform="translate(-8.28 -139.08)"/></g><g id="Layer_2" data-name="Layer 2"><path class="cls-1" d="M372.85,156.09c-41.73.25-76.59,35.17-76.3,76.41.31,42.9,34.82,77.58,77.2,77.07s76-34.24,76.28-76A76.84,76.84,0,0,0,372.85,156.09Zm.55,148.24c-40.4,0-71.52-31.79-71.57-73.13-.05-38,32.48-69.79,71.38-69.82,40.06,0,71.57,31.81,71.65,72.37.06,38.61-32.28,70.55-71.46,70.56Z" transform="translate(-8.28 -139.08)"/><path class="cls-1" d="M340.85,203h25v72.54h15V202.62h24.87V190.14H340.85Z" transform="translate(-8.28 -139.08)"/></g></svg>