<svg id="Layer_1" data-name="Layer 1" xmlns="http://www.w3.org/2000/svg" viewBox="0 0 486 455.87"><path d="M268.06,40.33c75.11.13,134.09,60.18,133.81,136.22C401.6,249,340,309.5,267.09,309.14c-75.21-.38-133.84-60.89-133.62-137.89C133.68,99.27,194.4,40.21,268.06,40.33ZM277.68,269c.35-7.17.24-14.48.36-18.55a56.29,56.29,0,0,0,19.43-8.52c24-16.79,28.59-54.21,1.29-71.45-9.92-6.26-21.46-9.92-32.13-15-6.92-3.33-14.37-7.16-12.25-16.64,2-8.94,10.07-11.44,17.68-11.08,10.58.5,21.07,2.9,32.83,4.66,2.1-7.38,4.51-15.89,7.47-26.31-12-2.83-22.44-5.66-34.56-6.62-.17-12.28,0-16.31,0-20.23H258.48v21c-5.86,1.5-8.38,2-13.3,4.26-17.81,8-26,22.16-25,41.47.78,15.75,10,26,23.09,32.81,10.46,5.48,22.21,8.65,32.27,14.69,4.53,2.73,9.05,5.37,8.85,14-.12,5.47-3.4,10.23-8.61,13.1-3.39,1.87-10.37,2.7-18.19,1.85-11-1.2-16.8-3.17-32.07-8-1.6,5.91-4.92,20.13-6.87,26.23,0,0,9.09,4.69,17.34,6.4,10.44,2.16,13.07,2.27,23.5,3.26V269ZM108.23,495.84c28.83,2.1,51.64-4.67,69.63-27.92,8.37-10.81,20.88-14.43,34.69-14.27,28.84.34,57.68.11,86.52.1,24.59,0,45.73-8.47,63.17-25.91Q423,367.06,483.78,306.23c12.16-12.22,12.73-28.92,1.81-39.35-11.11-10.61-25.45-9.55-38.25,3.16C424.84,292.4,402.52,315,380,337.31c-4,4-5.85,7.21-4.67,13.82,4.41,24.84-11.84,49.3-35.33,50.35-37.78,1.68-75.68.79-113.52.3-3,0-5.95-5.47-8.92-8.4,3-2.8,5.7-6.09,9.13-8.2,1.84-1.13,4.93-.21,7.45-.21,32.45,0,64.89.16,97.34-.07,19-.14,30.18-13.1,27.19-30.66-2.18-12.81-12.51-20.42-28.84-20.48-40-.15-80,.43-120-.21-29.47-.47-53.3,9.27-73.92,31C94.45,408.15,51.62,450.43,7.36,495.29,42.83,495.29,75.68,493.46,108.23,495.84Z" transform="translate(-7.36 -40.33)"/></svg>