<svg id="Layer_1" data-name="Layer 1" xmlns="http://www.w3.org/2000/svg" viewBox="0 0 463.45 439.97"><path d="M159.49,469.77l57.89-185h-3.81q-60.19,0-120.38-.05a5.87,5.87,0,0,0-5.33,2.65C77.63,301.16,67.24,314.84,57,328.62a5.23,5.23,0,0,1-4.77,2.44C41.84,331,31.45,331,20.57,331c.32-1.51.49-2.66.81-3.78,7.11-24.87,14.27-49.73,21.32-74.63a10,10,0,0,0,0-5.19c-7-24.9-14.2-49.76-21.32-74.63-.3-1.06-.51-2.16-.83-3.55,1.19-.11,2.15-.28,3.11-.28,9.49,0,19,.05,28.48-.06a5.21,5.21,0,0,1,4.78,2.41C67.24,185.17,77.69,199,88,212.82a5.3,5.3,0,0,0,4.73,2.52q60.53-.09,121.05-.05c1,0,2-.12,3.54-.22C198,153.42,178.86,92.13,159.52,30.36c1.31-.11,2.35-.28,3.4-.28,13.34,0,26.68.05,40-.07a4.75,4.75,0,0,1,4.58,2.64c36.34,58.17,72.84,116.25,109,174.55,3.76,6.07,7.51,8.39,14.81,8.31,39.11-.45,78.22-.25,117.33-.2,19.08,0,35.07,15.47,35.37,33.95.31,18.81-15.24,35-34.25,35.43-10.17.23-20.34.07-30.52.07-30.85,0-61.71.07-92.57-.09-3.57,0-5.57,1-7.51,4.09q-55.68,89.33-111.58,178.52a5,5,0,0,1-4.88,2.71c-13.22-.12-26.45-.06-39.67-.07C162,469.92,161,469.84,159.49,469.77Z" transform="translate(-20.55 -30.01)"/></svg>