<svg id="Layer_1" data-name="Layer 1" xmlns="http://www.w3.org/2000/svg" viewBox="0 0 471.46 400.07"><path d="M84.64,218.91a29.35,29.35,0,0,0,2.71,1.9c34.43,19,60.69,46.4,81.53,79.37,1.13,1.79,1.47,3.2-.36,4.84-9.83,8.82-20.77,15.22-34.28,16.32-11.78,1-21.83-3.25-31-10.22-7.32-5.55-12.27-12.91-16.51-20.88C80.22,278,74,265.66,67.06,253.73c-12.34-21.1-28.7-38.49-49.67-51.34-.84-.51-1.59-1.18-3.12-2.33,3.79-1.17,6.8-2.19,9.86-3C47.87,190.48,72,186.2,96.66,186.13c21.31-.06,42,3.09,60.44,14.81C169.81,209,181.22,218.4,188.39,232a51.59,51.59,0,0,1,3.66,40.87,7.13,7.13,0,0,0,1.27,7.35c5.12,6.47,10,13.15,15,19.7a15.8,15.8,0,0,0,2.5,2.15,13.74,13.74,0,0,0,1.85-2.67c6.25-15.75,12.5-31.5,18.56-47.33.6-1.57.69-4.13-.2-5.36-21.48-30-22-61.56-5.52-93.43C243.74,118.07,271,91.7,307.07,74.61c27.83-13.19,57.22-21.25,87.37-26.82A552.67,552.67,0,0,1,481.38,39c1.16,0,2.32.06,3.47.14.19,0,.35.26.88.68-.79.94-1.55,1.88-2.34,2.78-17.68,20.09-34.64,40.71-47.93,64.09-8.83,15.54-12.54,32.66-15.68,50-3,16.8-5.6,33.7-9.17,50.39-4.77,22.33-14.24,42.5-30.39,59C360.76,286,336.89,293,309.82,288.42c-10-1.69-19.63-5.48-29.27-8.77-4.72-1.62-4.58-2.1-2.92-7a438,438,0,0,1,62.71-119.61,362.5,362.5,0,0,1,38.57-44.45,34.59,34.59,0,0,0,2.62-3.26l-.64-.8a28.69,28.69,0,0,0-2.91,1.37c-29.91,18.82-54.75,43-75.16,71.75-30.83,43.42-50,91.87-61.24,143.62-3,13.83-4.93,27.9-7.46,41.84-.54,3,.86,3.92,3.44,4.37,8.58,1.48,17.28,2.53,25.68,4.72,22.78,5.93,44,15.07,60.56,32.61a55,55,0,0,1,12.35,20c2.71,7.94-1.76,14.16-10.07,14.16q-112.62,0-225.23-.12a16.34,16.34,0,0,1-8.65-2.64c-3.64-2.46-4.06-7-2.23-12.06,4.17-11.4,11.74-20.27,21-27.69,17-13.57,36.73-21.23,57.74-25.73,8.27-1.78,16.74-2.63,25.14-3.78,2.27-.31,3.55-1.18,4-3.54,1.58-8.69,3.33-17.34,4.9-26a8.9,8.9,0,0,0-.26-4.1c-14.47-46-44.06-79.79-84.72-104.49a90,90,0,0,0-28.25-10.72,40.13,40.13,0,0,0-4.54-.48Z" transform="translate(-14.27 -38.96)"/></svg>