<svg id="Layer_1" data-name="Layer 1" xmlns="http://www.w3.org/2000/svg" viewBox="0 0 449.58 384.72"><path d="M282.41,96.56c-3.53,0-6.77.07-10,0-5.5-.14-8.11-2.73-8.13-8.17q-.07-17.07,0-34.15c0-5.67,2.69-8.46,8.33-8.47q33.3-.09,66.62,0c5.65,0,8.36,2.77,8.38,8.42q.07,17.07,0,34.16c0,5.37-2.78,8.07-8.17,8.22-3.13.09-6.26.06-9.39.11a8.47,8.47,0,0,0-1.54.46,59.21,59.21,0,0,0,.13,8.07,4,4,0,0,0,2.73,2.51c36.26,5.79,66.78,22.46,92.42,48.46.09.09.26.1.77.3,6.28-5.21,12.73-10.54,19.16-15.9,5-4.19,8.18-3.94,12.27,1,5.36,6.46,10.76,12.88,16.11,19.35,3.86,4.69,3.62,7.75-1,11.65-6.4,5.43-12.81,10.86-19.35,16.11-2.13,1.71-2.56,3-1.23,5.61a163.59,163.59,0,0,1,17.67,78.15C467,338.51,423.78,398,359.62,421.13a156.49,156.49,0,0,1-79.81,7c-38.88-6.43-71-24.73-97-54.13a8.19,8.19,0,0,0-5.4-2.4c-10.81-.22-21.63-.08-32.45-.12-6.08,0-8.58-2.48-8.63-8.52,0-6.83-.06-13.67,0-20.5,0-5.85,1.93-8,7.81-8.23,8.52-.27,17-.18,25.58-.2,9.95,0,19.91.07,29.86-.07,2.58,0,4,.91,5.54,3,29.55,40.49,69.41,58.15,119,51.78,48.58-6.24,89.9-44.87,100.6-92.38,12.57-55.81-11.92-109.82-62.52-136.73-68.48-36.42-158.07,1.3-175.78,83.1-.59,2.73-1.69,3.37-4.23,3.37-28.47-.07-56.94,0-85.41-.07-5.25,0-7.74-2.59-7.79-7.93-.06-6.83,0-13.66,0-20.49s2.23-9,8.87-9c17.37,0,34.73-.13,52.09.08,3.79,0,5.58-1.2,6.8-4.69a79,79,0,0,1,5.08-10.78c1-2,.78-3.25-1-4.71-7-5.8-13.87-11.76-20.8-17.65-3.47-2.94-4-6-1.16-9.58q8.85-11,18-21.66c3.08-3.61,6.55-3.71,10.47-.48,6.79,5.6,13.51,11.28,20.5,17.12,2.59-2.46,4.91-4.71,7.28-6.91A159.48,159.48,0,0,1,278,108.21c3.72-.64,4.89-2,4.5-5.45A60.33,60.33,0,0,1,282.41,96.56ZM338.85,362a102.86,102.86,0,0,0,62-131c-9-25.9-26-45.17-50.24-57.81a98.06,98.06,0,0,0-46.87-11.36v16.72c47.33.74,80.23,37.33,85,75.08a86.22,86.22,0,0,1-45.7,87.76,82.56,82.56,0,0,1-51.6,8.89c-27.33-4-48.11-18.48-62.75-42l-14.35,8.3C233.2,352.75,284.3,381.73,338.85,362ZM181.12,271.2q-73.87,0-147.74,0c-5.43,0-8,2.7-8.12,8.24-.09,6.54,0,13.09,0,19.63,0,7.57,2.36,9.93,10,9.93q75.51,0,151,0c1.33,0,2.67-.18,3.33-.23-2.3-12.58-4.52-24.69-6.86-37.43A13.92,13.92,0,0,0,181.12,271.2Zm116.81-44.95c0,8,.82,16.05-.29,23.85-.74,5.15-4.26,9.9-6.58,14.81-.15.31-.73.4-1.1.61Q280,271.25,270,277c-7.74,4.48-15.5,8.93-23.19,13.5-3.25,1.93-4.29,5.45-2.78,8.37s5.07,3.83,8.55,2.25c1-.47,2-1.08,3-1.65,13.16-7.59,26.28-15.25,39.53-22.68a10.07,10.07,0,0,1,6.17-.81c5.76,1,11.25-1.22,13.85-6.07s1.36-10.86-2.45-15a9.39,9.39,0,0,1-2.48-5.7c-.2-15.64-.1-31.28-.14-46.92,0-4.68-2.15-7.22-5.89-7.33-4-.12-6.16,2.35-6.21,7.38-.07,8,0,15.92,0,23.88ZM123.23,341c-.1-4.4-2.43-6.83-6.88-6.9q-11.71-.18-23.44,0c-4.32.07-7,2.61-7.06,6.9q-.25,11.72,0,23.44c.08,4.22,2.79,6.92,7,7,7.81.16,15.63.2,23.43,0,4.59-.13,6.85-2.79,6.94-7.43.07-3.69,0-7.39,0-11.08C123.26,349,123.33,345,123.23,341Z" transform="translate(-25.21 -45.71)"/></svg>