<svg id="Layer_1" data-name="Layer 1" xmlns="http://www.w3.org/2000/svg" viewBox="0 0 329.47 329.73"><path d="M162.88,364.68V343.17q0-120,0-240.07c0-7.94,3.62-13.46,10.1-15.37a13.88,13.88,0,0,1,17.83,13.6c.07,16.22,0,32.44,0,48.66q0,106,0,212v3.72c2.27-2.44,4-4.28,5.72-6.16,15.1-16.72,30.14-33.51,45.32-50.16,7.55-8.28,20.46-5.72,23.62,4.6,1.68,5.44.21,10.23-3.61,14.45-12.2,13.48-24.32,27-36.49,40.54-12.3,13.67-24.95,27.06-36.81,41.11-6.31,7.49-16.33,6.81-22.55-.07q-37.35-41.28-74.88-82.43c-5.49-6-5-14.24,1-19.78,5.75-5.26,14.12-4.76,19.51,1.21q23,25.46,45.93,50.93c1.51,1.68,3,3.34,4.56,5ZM313.47,139.12v26.69q0,118.05,0,236.1a17,17,0,0,0,.55,4.83c2,6.61,8.58,10.94,15,10,7.38-1.1,12.28-6.8,12.31-14.53.06-12.73,0-25.47,0-38.2q0-111.36,0-222.71c0-.8.14-1.6.26-2.82l1.63,1.76q24.4,27,48.8,54c5.73,6.33,14.68,6.83,20.68,1.27,5.35-5,5.39-13.83-.12-19.87-24.56-26.94-48.71-54.26-73.3-81.18-8.3-9.08-16-7.67-23-.07-19.26,20.74-38,41.95-56.93,63-5.61,6.22-11.26,12.41-16.82,18.69-5.28,6-4.89,14.93.76,20s13.9,4.31,19.41-1.81l33.22-36.87q8.4-9.32,16.84-18.61Z" transform="translate(-87.27 -87.13)"/></svg>