<svg id="Layer_1" data-name="Layer 1" xmlns="http://www.w3.org/2000/svg" viewBox="0 0 326.29 276.08"><path d="M152.17,346.34v-18l0-201c0-6.65,3-11.27,8.45-12.88a11.63,11.63,0,0,1,14.93,11.39c.06,13.59,0,27.17,0,40.75q0,88.74,0,177.49v3.12c1.9-2.05,3.36-3.58,4.78-5.16,12.65-14,25.24-28.05,38-42,6.33-6.94,17.13-4.8,19.78,3.84,1.4,4.56.18,8.57-3,12.1q-15.33,16.93-30.55,33.94c-10.31,11.45-20.9,22.66-30.83,34.43-5.28,6.27-13.67,5.7-18.88-.06q-31.28-34.57-62.69-69c-4.6-5.06-4.23-11.92.83-16.56,4.82-4.4,11.82-4,16.34,1Q128.5,321,147.7,342.38l3.82,4.19ZM328.68,157.49v22.34q0,98.85,0,197.69a14.37,14.37,0,0,0,.46,4c1.66,5.53,7.19,9.16,12.55,8.37,6.17-.91,10.27-5.69,10.3-12.16.05-10.66,0-21.32,0-32q0-93.24,0-186.47c0-.67.12-1.33.22-2.36.65.7,1,1.09,1.37,1.48Q374,181,394.47,203.68c4.8,5.3,12.29,5.72,17.31,1.06,4.48-4.16,4.52-11.58-.09-16.63-20.57-22.56-40.79-45.44-61.38-68-6.95-7.61-13.37-6.43-19.28-.06-16.12,17.36-31.81,35.12-47.67,52.73-4.69,5.21-9.42,10.39-14.07,15.65a11.9,11.9,0,0,0,.63,16.73c4.76,4.25,11.64,3.6,16.25-1.52L314,172.8q7-7.8,14.1-15.58Z" transform="translate(-88.86 -113.96)"/></svg>