<svg id="Layer_1" data-name="Layer 1" xmlns="http://www.w3.org/2000/svg" viewBox="0 0 490.71 316.62"><path d="M477.28,252.19Q427.62,201.71,377.14,152c-25.54-25.17-56.68-37.24-92.47-37.26q-139.37-.06-278.75,0v66.74c11.11,0,21.89-.09,32.66,0,10,.11,17.11,7.13,17.15,17.16q.15,32.92,0,65.85c-.93,26.09-33,15.06-50,17.84v83.14c146-1.48,292.55,2.9,438.36-1.68C494.1,354.77,514.69,286.78,477.28,252.19ZM256.53,263.42c0,12-6.74,18.61-18.86,18.62q-65,0-130.09,0c-11.74,0-18.5-6.75-18.52-18.44q0-31.86,0-63.73c0-11.64,6.82-18.35,18.6-18.36q65.06,0,130.09,0c12.1,0,18.77,6.65,18.78,18.71Q256.58,231.81,256.53,263.42Zm178.6,8.35c-3,7.17-8.83,10.34-16.61,10.31-18.29-.09-36.58,0-54.87,0-18.46,0-36.93,0-55.4,0-11.68,0-18.4-6.79-18.41-18.55,3.46-79.59-18.62-84.33,55.83-82a32.43,32.43,0,0,1,23.94,9.87Q400.29,222,431,252.69C436.47,258.2,438.16,264.61,435.13,271.77Z" transform="translate(-5.77 -114.76)"/><path d="M289.83,387.06c15.91,65.6,99.47,52.38,100-4.87H190.49C189.77,441.07,280.08,450,289.83,387.06Z" transform="translate(-5.77 -114.76)"/><path d="M105.4,382.71H5.92C5.2,447.7,106.34,447.51,105.4,382.71Z" transform="translate(-5.77 -114.76)"/></svg>