<svg xmlns="http://www.w3.org/2000/svg" fill="#00957a" height="25px" viewBox="0 0 483.52 187.5"><defs><style>.cls-1{fill:#fff;}</style></defs><g id="Layer_1" data-name="Layer 1"><path d="M491.81,326.58H8.28V139.08H491.81Z" transform="translate(-8.28 -139.08)"/></g><g id="Layer_2" data-name="Layer 2"><path class="cls-1" d="M463.64,226.54q-16.83-17.11-33.94-34C421,184,410.48,180,398.35,180q-47.24,0-94.48,0v22.62c3.76,0,7.42,0,11.07,0a5.62,5.62,0,0,1,5.81,5.81q0,11.16,0,22.33c-.32,8.84-11.19,5.1-16.95,6v28.18c49.49-.5,99.17,1,148.59-.57C469.34,261.31,476.32,238.26,463.64,226.54Zm-74.83,3.8c0,4.07-2.28,6.31-6.39,6.31H338.33c-4,0-6.28-2.28-6.28-6.25V208.8c0-3.94,2.31-6.22,6.3-6.22h44.1c4.1,0,6.36,2.25,6.36,6.34Q388.83,219.63,388.81,230.34Zm60.54,2.83a5.54,5.54,0,0,1-5.63,3.5c-6.2,0-12.4,0-18.6,0H406.34c-3.95,0-6.23-2.3-6.24-6.29,1.18-27-6.31-28.58,18.93-27.79a11,11,0,0,1,8.11,3.34q10.41,10.38,20.81,20.78a5.5,5.5,0,0,1,1.4,6.46ZM400.1,272.25c5.39,22.24,33.72,17.76,33.9-1.65H366.43C366.18,290.56,396.8,293.59,400.1,272.25Zm-62.51-1.47H303.87C303.62,292.81,337.9,292.74,337.59,270.78Z" transform="translate(-8.28 -139.08)"/></g></svg>