<svg id="Layer_1" data-name="Layer 1" xmlns="http://www.w3.org/2000/svg" viewBox="0 0 462.06 384.91"><path d="M480.86,276.24a72.35,72.35,0,0,0-2.5-18c-6.77-24.71-13.93-49.31-21-73.93-5.06-17.64-15.23-25.21-33.73-25.21H300.87c2.62-1.86,4-2.88,5.43-3.83,14.53-9.7,29.11-19.33,43.6-29.1,10.48-7.06,10.6-19.62.16-26.61Q304.73,69.16,259.25,39c-6.13-4.1-12.28-4.14-18.42,0C210.42,59.2,180,79.42,149.67,99.86a18.9,18.9,0,0,0-6.25,7.62c-3.07,6.84-.35,14,6.6,18.66q23.91,16,47.92,32c-.1.33-.19.66-.28,1h-5.23q-59.19,0-118.38,0c-15.41,0-26.62,8.5-30.87,23.29C36,207.68,28.65,232.9,21.69,258.22a70.55,70.55,0,0,0-2.54,17.51c-.29,22.29-.15,44.59-.1,66.88,0,18.85,13.24,32,32.2,32q198.74,0,397.47,0c19.18,0,32.23-13.15,32.25-32.42C481,320.18,481.15,298.21,480.86,276.24ZM95.72,282H49.17c.63-5.44.6-10.64,1.91-15.48,5.18-19.15,10.86-38.16,16.17-57.28.88-3.19,2.25-4.29,5.61-4.16,7.5.28,15,.08,22.86.08Zm92.43,0H127V205.33h61.13Zm-2.93-169.15c2.66-1.81,4.6-3.15,6.56-4.45C210,96.23,228.26,84,246.59,72c1.42-.93,4.21-1.62,5.35-.87,20.77,13.57,41.38,27.37,62.56,41.49-1.39,1.11-2.38,2-3.49,2.76-19.18,12.8-38.34,25.63-57.6,38.3-1.42.93-4.21,1.62-5.35.87C227.29,141,206.68,127.16,185.22,112.86ZM280.58,282H219.3V205.47h61.28ZM373,282h-61.1V205.32H373Zm77,.1H404.35V205.17c8.41,0,16.71-.08,25,.11a4,4,0,0,1,2.76,2.39c6,20.76,12.05,41.51,17.68,62.37C450.78,273.72,449.93,277.9,449.93,282.09Z" transform="translate(-18.97 -35.88)"/><path d="M98,420.76c18.5-.69,37.3-14.71,40.7-30.34H53C58.45,408.59,77.77,421.52,98,420.76Z" transform="translate(-18.97 -35.88)"/><path d="M188.63,420.79c19.17-.08,37.14-12.72,42.74-30.32h-86C151.11,408.27,169.22,420.87,188.63,420.79Z" transform="translate(-18.97 -35.88)"/><path d="M311.35,420.79c19.41.08,37.46-12.45,43.27-30.33h-86C274.15,408,292.18,420.71,311.35,420.79Z" transform="translate(-18.97 -35.88)"/><path d="M404.28,420.79c19.16-.08,37.15-12.74,42.72-30.31H361C366.76,408.29,384.86,420.87,404.28,420.79Z" transform="translate(-18.97 -35.88)"/></svg>