<svg xmlns="http://www.w3.org/2000/svg" fill="#08cdcd" height="25px" viewBox="0 0 483.52 187.5"><defs><style>.cls-1{fill:#fff;}</style></defs><g id="Layer_1" data-name="Layer 1"><path d="M491.81,326.58H8.28V139.08H491.81Z" transform="translate(-8.28 -139.08)"/></g><g id="Layer_2" data-name="Layer 2"><path class="cls-1" d="M459,245.35a27,27,0,0,0-.93-6.69c-2.51-9.18-5.17-18.31-7.8-27.46-1.88-6.55-5.66-9.36-12.53-9.36H392.18c1-.69,1.48-1.07,2-1.42,5.39-3.61,10.81-7.18,16.19-10.81,3.89-2.62,3.94-7.29.06-9.88q-16.84-11.29-33.73-22.5a5.69,5.69,0,0,0-6.84,0Q352.94,168.5,336,179.84a7,7,0,0,0-2.32,2.83c-1.14,2.54-.13,5.2,2.45,6.93q8.88,5.94,17.8,11.88c0,.12-.07.25-.1.37H307.94a11.29,11.29,0,0,0-11.47,8.65c-2.67,9.38-5.4,18.75-8,28.15a26.05,26.05,0,0,0-.94,6.51c-.11,8.27-.06,16.56,0,24.84,0,7,4.92,11.88,12,11.88H447.09c7.12,0,12-4.88,12-12C459.08,261.67,459.14,253.51,459,245.35Zm-143,2.13H298.7a39,39,0,0,1,.71-5.74c1.92-7.12,4-14.18,6-21.28a1.75,1.75,0,0,1,2.08-1.54c2.79.1,5.58,0,8.49,0Zm34.33,0H327.6V219h22.71Zm-1.08-62.82c1-.67,1.7-1.17,2.43-1.65,6.77-4.52,13.55-9.06,20.36-13.52a2.34,2.34,0,0,1,2-.32c7.71,5,15.36,10.16,23.23,15.41-.52.41-.88.74-1.3,1-7.12,4.75-14.23,9.52-21.39,14.23a2.37,2.37,0,0,1-2,.32c-7.71-5-15.36-10.17-23.33-15.48Zm35.41,62.82H361.88V219.06h22.76Zm34.33,0H396.28V219H419Zm28.6,0h-17V219c3.13,0,6.21,0,9.29,0a1.47,1.47,0,0,1,1,.89c2.23,7.71,4.48,15.42,6.57,23.16.37,1.37.05,2.92.05,4.48Z" transform="translate(-8.28 -139.08)"/><path class="cls-1" d="M316.83,299c6.87-.26,13.86-5.46,15.12-11.27H300.12C302.14,294.5,309.32,299.3,316.83,299Z" transform="translate(-8.28 -139.08)"/><path class="cls-1" d="M350.49,299c7.12,0,13.8-4.72,15.88-11.26H334.43C336.56,294.38,343.28,299.06,350.49,299Z" transform="translate(-8.28 -139.08)"/><path class="cls-1" d="M396.07,299a16.92,16.92,0,0,0,16.07-11.26H380.2C382.25,294.28,389,299,396.07,299Z" transform="translate(-8.28 -139.08)"/><path class="cls-1" d="M430.59,299c7.11,0,13.79-4.73,15.86-11.26H414.51C416.65,294.39,423.37,299.06,430.59,299Z" transform="translate(-8.28 -139.08)"/></g></svg>