<svg id="Layer_1" data-name="Layer 1" xmlns="http://www.w3.org/2000/svg" viewBox="0 0 300.52 460.41"><path d="M210.2,191.89c-4.45,2.54-8.53,4.85-12.6,7.18q-15.75,9-31.47,18.05a5.7,5.7,0,0,0-2.16,2.4q-12.27,27.25-24.38,54.59c-1.44,3.27-2.56,6.64-5,9.37A20,20,0,0,1,101.43,262c5.47-12.45,10.82-24.94,16.18-37.44q6.81-15.9,13.5-31.85a21.61,21.61,0,0,1,8.37-9.88c22.35-14.61,44.73-29.17,67-43.93,5.77-3.83,11.6-7.21,18.52-8.32a39.87,39.87,0,0,1,6-.61c8.52-.06,17.06-.22,25.58,0,21.78.65,37.78,21.88,32.53,43q-14,56.55-28.15,113.08a9.07,9.07,0,0,0,1.08,7.53q17.47,29.31,34.6,58.83c1.13,1.94,1.47,4.37,2,6.61q9.27,41.66,18.5,83.31c.73,3.28,2.22,6.42,2.73,9.72,2,13.14-7.88,26.08-21.1,27.81-14.89,1.95-27.45-8.54-28.77-23.51-.47-5.38-2.15-10.66-3.33-16q-7.47-33.68-15-67.32a7.8,7.8,0,0,0-1.66-3.46Q228,345.87,206,322.18c-2.73-2.93-5.94-5.48-8.29-8.67-7.1-9.66-9.3-20.41-6.68-32.23,4.63-20.92,9.06-41.88,13.58-62.83q2.63-12.12,5.23-24.25C209.93,193.6,210,193,210.2,191.89ZM184.29,329.27c-.14.53-.3,1.06-.41,1.6-2.89,14.44-5.75,28.88-8.68,43.31a7.66,7.66,0,0,1-1.36,3q-14,18.09-28,36.11c-6.82,8.74-13.65,17.48-20.57,26.15a25,25,0,0,0,33.26,36.6c4-2.62,6.57-6.48,9.39-10.15q23.65-30.8,47.26-61.62a8.26,8.26,0,0,0,1.39-2.82c2.69-9.91,5.28-19.86,8-29.76a3.34,3.34,0,0,0-1-3.78q-17.53-17.31-34.92-34.77c-1.36-1.35-2.51-2.92-3.75-4.39ZM320.08,64.17a45.09,45.09,0,0,0-90.18,1.17c.35,24.79,20.77,44.87,45.3,44.53A45.06,45.06,0,0,0,320.08,64.17ZM308.92,174.78q-5.48,22.46-11.05,44.87a3.5,3.5,0,0,0,1,3.67c5.49,5.94,10.87,12,16.35,17.91a5.64,5.64,0,0,0,2.44,1.55q28.61,8.29,57.23,16.46a19.78,19.78,0,0,0,5.56.75c10.28-.15,18.3-7.5,19.69-17.91,1.24-9.22-5.11-18.57-14.53-21.34-15.68-4.61-31.37-9.19-47-13.86a5.68,5.68,0,0,1-2.76-2c-7.9-11.06-15.72-22.19-23.57-33.29-.67-.95-1.39-1.86-2.23-3C309.59,170.89,309.38,172.87,308.92,174.78Z" transform="translate(-99.74 -19.79)"/></svg>